<?xml version="1.0" encoding="utf-8"?>
<!-- Generator: Adobe Illustrator 26.5.0, SVG Export Plug-In . SVG Version: 6.00 Build 0)  -->
<svg version="1.1" id="katman_1" xmlns="http://www.w3.org/2000/svg" xmlns:xlink="http://www.w3.org/1999/xlink" x="0px" y="0px"
	 viewBox="0 0 841.89 595.28" enable-background="new 0 0 841.89 595.28" xml:space="preserve">
<path fill="#69BCEB" d="M244.12,399.58L170.94,512.5L65.08,343.82h117.16c16.68,0,32.15,8.47,40.83,22.33L244.12,399.58z"/>
<path fill="#227CC0" d="M275.46,512.64h-77.82l183.34-282.75c14.66-22.6,40.15-36.32,67.53-36.32h100.01L377.02,458.03
	C355.02,492.06,316.69,512.64,275.46,512.64z"/>
<path fill="#2C5493" d="M789.37,92.69L546.44,475.65c-14.53,23-40.29,37.06-68,37.06H344.46c12.44-1.08,23.2-5.78,32.28-11.97
	c0.2-0.07,0.27-0.13,0.47-0.27c9.89-6.12,18.36-14.33,24.75-24.21l0.74-1.14l8.07-12.71c0.07-0.13,0.13-0.13,0.13-0.13L622.3,129.68
	c14.53-23,40.29-36.99,67.93-36.99H789.37z"/>
</svg>
