<?xml version="1.0" encoding="utf-8"?>
<!-- Generator: Adobe Illustrator 26.5.0, SVG Export Plug-In . SVG Version: 6.00 Build 0)  -->
<svg version="1.1" id="katman_1" xmlns="http://www.w3.org/2000/svg" xmlns:xlink="http://www.w3.org/1999/xlink" x="0px" y="0px"
	 viewBox="0 0 259.68 67.27" enable-background="new 0 0 259.68 67.27" xml:space="preserve">
<g>
	<path fill="#67BCEA" d="M56.25,44.8l-8.43,13.01l-12.2-19.43h13.5c1.92,0,3.7,0.98,4.7,2.57L56.25,44.8z"/>
	<path fill="#1E7BC0" d="M59.86,57.82h-8.97l21.12-32.58c1.69-2.6,4.63-4.18,7.78-4.18h11.52L71.56,51.53
		C69.03,55.45,64.61,57.82,59.86,57.82z"/>
	<path fill="#2A5391" d="M119.07,9.44L91.08,53.56c-1.67,2.65-4.64,4.27-7.83,4.27H67.81c1.43-0.12,2.67-0.67,3.72-1.38
		c0.02-0.01,0.03-0.02,0.05-0.03c1.14-0.71,2.12-1.65,2.85-2.79l0.09-0.13l0.93-1.46c0.01-0.02,0.02-0.02,0.02-0.02L99.82,13.7
		c1.67-2.65,4.64-4.26,7.83-4.26H119.07z"/>
	<g>
		<g enable-background="new    ">
			<path fill="#2A5391" d="M119.83,31.76h-2.86l1.03-3.78l-1.72-6.72h2.93l0.83,3.93l3.02-3.93h3.12l-5.29,6.57L119.83,31.76z"/>
			<path fill="#2A5391" d="M128.57,31.76l0.12-0.94c-0.3,0.36-0.66,0.64-1.1,0.83c-0.43,0.2-0.88,0.29-1.35,0.29
				c-0.39,0-0.75-0.08-1.09-0.22c-0.33-0.15-0.61-0.37-0.82-0.65c-0.21-0.29-0.35-0.64-0.4-1.05c-0.05-0.42-0.01-0.87,0.12-1.37
				l1.35-4.98h2.7l-1.17,4.36c-0.14,0.51-0.15,0.9-0.04,1.17c0.11,0.27,0.38,0.41,0.8,0.41c0.42,0,0.75-0.12,0.99-0.37
				c0.24-0.25,0.42-0.59,0.54-1.03l1.24-4.54h2.7l-2.2,8.1H128.57z M129.16,22.73h-2.35l0.52-1.92h2.35L129.16,22.73z M132.23,22.73
				h-2.35l0.53-1.92h2.35L132.23,22.73z"/>
			<path fill="#2A5391" d="M135.68,29.84l-0.51,1.92h-2.7l2.95-10.95h2.7l-1.45,5.37l2.8-2.52h3.32l-3.88,3.42l1.74,4.68h-2.96
				l-0.98-2.81L135.68,29.84z"/>
			<path fill="#2A5391" d="M149.31,26.12h-2.61l0.05-0.18c0.05-0.17,0-0.31-0.14-0.43c-0.14-0.12-0.39-0.17-0.76-0.17
				c-0.33,0-0.57,0.06-0.73,0.17c-0.16,0.11-0.25,0.25-0.26,0.41c-0.01,0.13,0.02,0.24,0.09,0.32c0.07,0.09,0.23,0.15,0.46,0.2
				l1.38,0.31c1.35,0.31,1.98,1.06,1.87,2.25c-0.03,0.33-0.12,0.67-0.27,1c-0.15,0.34-0.39,0.66-0.7,0.95
				c-0.31,0.29-0.73,0.52-1.25,0.7c-0.52,0.18-1.14,0.27-1.84,0.27c-0.86,0-1.55-0.1-2.08-0.32c-0.53-0.21-0.9-0.5-1.11-0.86
				c-0.21-0.37-0.26-0.78-0.13-1.24l0.07-0.25h2.66l-0.05,0.21c-0.07,0.36,0.24,0.54,0.95,0.54c0.34,0,0.6-0.06,0.78-0.17
				c0.18-0.11,0.28-0.26,0.29-0.44c0.01-0.14-0.02-0.26-0.1-0.35c-0.08-0.1-0.23-0.17-0.46-0.22l-1.23-0.3
				c-0.38-0.1-0.72-0.24-1.01-0.43c-0.3-0.18-0.52-0.43-0.69-0.74c-0.16-0.31-0.22-0.69-0.18-1.15c0.03-0.28,0.11-0.58,0.24-0.89
				c0.13-0.31,0.37-0.62,0.7-0.92c0.33-0.3,0.76-0.53,1.28-0.69c0.52-0.15,1.05-0.23,1.59-0.23c0.52,0,1.02,0.05,1.48,0.14
				c0.47,0.09,0.84,0.25,1.13,0.46c0.29,0.21,0.49,0.47,0.6,0.77c0.11,0.31,0.12,0.65,0.04,1.04L149.31,26.12z"/>
			<path fill="#2A5391" d="M156.96,29.69c-0.41,1.5-1.67,2.25-3.76,2.25c-1.47,0-2.49-0.31-3.06-0.93
				c-0.56-0.62-0.68-1.55-0.34-2.81l0.46-1.69c0.27-1,0.76-1.75,1.46-2.26c0.7-0.51,1.6-0.77,2.71-0.77c0.58,0,1.13,0.07,1.64,0.22
				c0.51,0.15,0.91,0.39,1.21,0.71c0.3,0.33,0.49,0.72,0.57,1.19c0.08,0.47,0.04,0.98-0.11,1.54l-0.34,1.23h-4.98l-0.09,0.33
				c-0.08,0.3-0.1,0.54-0.05,0.73c0.04,0.19,0.16,0.32,0.35,0.41c0.19,0.09,0.45,0.13,0.8,0.13c0.28,0,0.51-0.04,0.7-0.13
				c0.19-0.09,0.33-0.26,0.4-0.51l0.05-0.18h2.52L156.96,29.69z M152.98,26.33l-0.09,0.37h2.36l0.05-0.18
				c0.06-0.24,0.07-0.44,0.02-0.61c-0.05-0.17-0.16-0.29-0.33-0.38c-0.18-0.09-0.43-0.14-0.77-0.14c-0.36,0-0.64,0.09-0.84,0.26
				C153.17,25.84,153.04,26.06,152.98,26.33z"/>
			<path fill="#2A5391" d="M160.87,29.84l-0.51,1.92h-2.7l2.95-10.95h2.7l-1.45,5.37l2.8-2.52h3.32l-3.88,3.42l1.75,4.68h-2.96
				l-0.98-2.81L160.87,29.84z"/>
			<path fill="#2A5391" d="M166.79,28.25l0.46-1.74c0.27-1,0.77-1.75,1.48-2.26c0.72-0.51,1.65-0.77,2.79-0.77
				c0.99,0,1.78,0.16,2.35,0.47c0.57,0.32,0.95,0.75,1.14,1.3c0.19,0.55,0.19,1.19,0,1.92l-0.46,1.74
				c-0.55,2.02-1.98,3.03-4.29,3.03c-0.98,0-1.76-0.16-2.33-0.47c-0.57-0.32-0.95-0.75-1.14-1.3
				C166.6,29.62,166.6,28.98,166.79,28.25z M171.71,22.73h-2.35l0.53-1.92h2.35L171.71,22.73z M171.91,28.71l0.48-1.8
				c0.06-0.26,0.07-0.49,0.02-0.68c-0.05-0.2-0.17-0.35-0.35-0.45c-0.18-0.1-0.45-0.16-0.8-0.16c-0.3,0-0.57,0.08-0.82,0.24
				c-0.25,0.16-0.43,0.44-0.54,0.84l-0.48,1.8c-0.06,0.26-0.07,0.49-0.02,0.68c0.05,0.2,0.17,0.35,0.35,0.45
				c0.18,0.1,0.45,0.16,0.8,0.16c0.3,0,0.57-0.08,0.82-0.24C171.62,29.39,171.8,29.11,171.91,28.71z M174.78,22.73h-2.35l0.52-1.92
				h2.35L174.78,22.73z"/>
			<path fill="#2A5391" d="M178.55,34.61c-0.51,0-1-0.06-1.47-0.17c-0.47-0.11-0.87-0.29-1.19-0.54c-0.32-0.25-0.56-0.55-0.72-0.89
				c-0.16-0.35-0.22-0.72-0.18-1.12l0-0.04h2.53l0,0.04c-0.01,0.12,0.03,0.24,0.12,0.36s0.24,0.2,0.43,0.25
				c0.2,0.05,0.4,0.07,0.62,0.07c0.3,0,0.54-0.04,0.72-0.14c0.18-0.09,0.32-0.22,0.41-0.4c0.09-0.18,0.16-0.35,0.21-0.53l0.32-1.17
				c-0.6,0.52-1.27,0.78-2,0.78c-0.44,0-0.84-0.08-1.21-0.23c-0.36-0.15-0.67-0.38-0.91-0.67c-0.24-0.29-0.39-0.65-0.46-1.08
				c-0.07-0.43-0.04-0.89,0.1-1.4l0.35-1.29c0.24-0.9,0.69-1.62,1.34-2.16c0.65-0.54,1.39-0.81,2.22-0.81
				c0.36,0,0.71,0.05,1.04,0.16c0.34,0.1,0.61,0.24,0.81,0.41c0.21,0.17,0.35,0.34,0.44,0.51l0.37-0.9h2.4l-2.11,7.83
				c-0.2,0.75-0.48,1.35-0.83,1.79c-0.35,0.44-0.8,0.78-1.35,1C180.01,34.5,179.34,34.61,178.55,34.61z M179.48,28.86
				c0.4,0,0.74-0.1,1.01-0.31c0.27-0.21,0.46-0.48,0.55-0.82l0.21-0.78c0.05-0.18,0.06-0.37,0.03-0.56
				c-0.03-0.19-0.14-0.35-0.34-0.48s-0.47-0.19-0.8-0.19s-0.62,0.1-0.86,0.31c-0.23,0.21-0.39,0.46-0.46,0.74l-0.2,0.73
				c-0.08,0.28-0.09,0.53-0.04,0.75s0.16,0.38,0.34,0.46C179.08,28.82,179.27,28.86,179.48,28.86z M182.41,20.51h1.66l-0.03,0.14
				c-0.13,0.69-0.45,1.24-0.94,1.64c-0.49,0.41-1.08,0.61-1.75,0.61c-0.87,0-1.49-0.2-1.87-0.61c-0.37-0.4-0.45-0.95-0.24-1.64
				l0.04-0.14h1.66l-0.04,0.14c-0.07,0.22-0.04,0.4,0.08,0.52c0.12,0.13,0.31,0.2,0.57,0.2c0.24,0,0.42-0.05,0.55-0.17
				c0.13-0.11,0.23-0.29,0.28-0.55L182.41,20.51z"/>
			<path fill="#2A5391" d="M186.87,31.76h-2.7l2.18-8.1h2.4l-0.15,1.11c0.26-0.32,0.59-0.59,0.97-0.8c0.38-0.21,0.77-0.35,1.17-0.4
				c0.4-0.05,0.77-0.06,1.1-0.02l-0.67,2.47h-0.66c-0.71,0-1.27,0.14-1.69,0.4c-0.42,0.27-0.7,0.69-0.86,1.25L186.87,31.76z"/>
			<path fill="#2A5391" d="M198.4,29.69c-0.41,1.5-1.67,2.25-3.76,2.25c-1.47,0-2.49-0.31-3.06-0.93c-0.56-0.62-0.68-1.55-0.34-2.81
				l0.46-1.69c0.27-1,0.76-1.75,1.46-2.26c0.7-0.51,1.6-0.77,2.71-0.77c0.58,0,1.13,0.07,1.64,0.22c0.51,0.15,0.91,0.39,1.21,0.71
				c0.3,0.33,0.49,0.72,0.57,1.19c0.08,0.47,0.04,0.98-0.11,1.54l-0.34,1.23h-4.98l-0.09,0.33c-0.08,0.3-0.09,0.54-0.05,0.73
				c0.04,0.19,0.16,0.32,0.35,0.41c0.19,0.09,0.45,0.13,0.8,0.13c0.28,0,0.51-0.04,0.7-0.13c0.19-0.09,0.33-0.26,0.4-0.51l0.05-0.18
				h2.52L198.4,29.69z M194.42,26.33l-0.09,0.37h2.36l0.05-0.18c0.06-0.24,0.07-0.44,0.02-0.61c-0.05-0.17-0.16-0.29-0.33-0.38
				c-0.18-0.09-0.43-0.14-0.77-0.14c-0.36,0-0.64,0.09-0.84,0.26C194.61,25.84,194.48,26.06,194.42,26.33z"/>
			<path fill="#2A5391" d="M204.71,29.54l-0.6,2.22h-1.01c-0.75,0-1.37-0.08-1.87-0.25c-0.5-0.17-0.84-0.46-1.02-0.87
				c-0.18-0.41-0.17-1.03,0.05-1.86l0.83-3.07h-1.01l0.55-2.01h1.01l0.53-1.98h2.7l-0.53,1.98h1.84l-0.55,2.01h-1.84l-0.85,3.1
				c-0.08,0.29-0.04,0.49,0.09,0.59c0.14,0.1,0.46,0.15,0.96,0.15H204.71z"/>
			<path fill="#2A5391" d="M207.92,31.76h-2.7l2.18-8.1h2.7L207.92,31.76z M210.35,22.73h-2.7l0.53-1.92h2.7L210.35,22.73z"/>
			<path fill="#2A5391" d="M213.35,27.18l-1.24,4.57h-2.7l2.2-8.1h2.4l-0.12,0.95c0.3-0.36,0.66-0.64,1.1-0.83
				c0.43-0.2,0.88-0.29,1.35-0.29c0.52,0,0.98,0.13,1.39,0.39s0.68,0.62,0.83,1.08c0.32-0.48,0.73-0.84,1.23-1.09
				c0.5-0.25,1.04-0.38,1.61-0.38c0.39,0,0.75,0.07,1.09,0.22c0.33,0.15,0.61,0.37,0.82,0.65c0.22,0.28,0.35,0.64,0.41,1.05
				c0.06,0.41,0.01,0.87-0.12,1.37l-1.35,4.98h-2.7l1.17-4.36c0.14-0.51,0.15-0.9,0.04-1.17c-0.11-0.27-0.38-0.4-0.8-0.4
				c-0.42,0-0.75,0.12-0.99,0.35c-0.24,0.24-0.42,0.58-0.55,1.03l-1.24,4.56h-2.7l1.17-4.36c0.14-0.51,0.15-0.9,0.04-1.17
				c-0.11-0.27-0.38-0.4-0.8-0.4s-0.75,0.11-0.99,0.34C213.65,26.39,213.47,26.73,213.35,27.18z"/>
		</g>
		<g enable-background="new    ">
			<path fill="#2A5391" d="M107.46,44.27l-0.72,2.67h-2.86l2.84-10.5h2.86l-1.03,3.82l4.12-3.82h3.53l-4.84,4.38l2.02,6.12h-3.07
				l-1.29-4.06L107.46,44.27z"/>
			<path fill="#2A5391" d="M118.66,46.94l0.1-0.82c-0.28,0.31-0.61,0.55-0.99,0.73c-0.37,0.18-0.77,0.27-1.19,0.27
				c-0.44,0-0.84-0.08-1.21-0.23c-0.37-0.16-0.67-0.38-0.91-0.68c-0.24-0.29-0.39-0.65-0.46-1.08c-0.07-0.43-0.04-0.89,0.1-1.4
				l0.56-2.1c0.24-0.9,0.69-1.62,1.34-2.16c0.65-0.54,1.39-0.81,2.22-0.81c0.35,0,0.69,0.05,1.01,0.16c0.33,0.1,0.6,0.25,0.8,0.42
				c0.21,0.17,0.35,0.34,0.44,0.5l0.37-0.9h2.4l-2.2,8.1H118.66z M117.71,44.79c0.81,0,1.33-0.44,1.58-1.32l0.28-1.04
				c0.09-0.33,0.1-0.61,0.03-0.84c-0.07-0.23-0.21-0.39-0.41-0.47c-0.2-0.08-0.42-0.13-0.66-0.13c-0.33,0-0.61,0.1-0.83,0.31
				c-0.23,0.21-0.38,0.46-0.46,0.74l-0.37,1.4c-0.08,0.28-0.09,0.53-0.04,0.75c0.05,0.22,0.16,0.38,0.33,0.46
				C117.32,44.75,117.51,44.79,117.71,44.79z"/>
			<path fill="#2A5391" d="M125.26,46.94h-2.7l2.96-10.95h2.7L125.26,46.94z"/>
			<path fill="#2A5391" d="M129.47,46.94h-2.7l2.18-8.1h2.7L129.47,46.94z M131.9,37.91h-2.7l0.53-1.92h2.7L131.9,37.91z"/>
			<path fill="#2A5391" d="M136.65,44.72l-0.6,2.22h-1.01c-0.75,0-1.37-0.08-1.87-0.25c-0.5-0.17-0.84-0.46-1.02-0.87
				c-0.18-0.41-0.17-1.03,0.05-1.86l0.83-3.08h-1.01l0.55-2.01h1.01l0.53-1.98h2.7l-0.53,1.98h1.84l-0.55,2.01h-1.84l-0.85,3.1
				c-0.08,0.29-0.04,0.49,0.09,0.59c0.14,0.1,0.46,0.15,0.96,0.15H136.65z"/>
			<path fill="#2A5391" d="M144.96,44.87c-0.41,1.5-1.67,2.25-3.76,2.25c-1.47,0-2.49-0.31-3.06-0.93c-0.56-0.62-0.68-1.55-0.34-2.8
				l0.46-1.69c0.27-1,0.76-1.75,1.46-2.26c0.7-0.51,1.6-0.76,2.71-0.76c0.58,0,1.13,0.07,1.64,0.22c0.51,0.15,0.91,0.39,1.21,0.71
				c0.3,0.32,0.49,0.72,0.57,1.19s0.04,0.98-0.11,1.54l-0.34,1.23h-4.98l-0.09,0.33c-0.08,0.3-0.09,0.54-0.05,0.73
				c0.04,0.18,0.16,0.32,0.35,0.41s0.45,0.13,0.8,0.13c0.28,0,0.51-0.04,0.7-0.13s0.33-0.26,0.4-0.51l0.05-0.18h2.52L144.96,44.87z
				 M140.98,41.51l-0.09,0.37h2.36l0.05-0.18c0.06-0.24,0.07-0.44,0.02-0.61s-0.16-0.29-0.33-0.38c-0.18-0.09-0.43-0.13-0.77-0.13
				c-0.36,0-0.64,0.09-0.84,0.26C141.17,41.02,141.04,41.24,140.98,41.51z"/>
			<path fill="#2A5391" d="M152.57,44.27l-0.72,2.67H149l2.84-10.5h2.86l-1.03,3.82l4.12-3.82h3.53l-4.84,4.38l2.02,6.12h-3.07
				l-1.29-4.06L152.57,44.27z"/>
			<path fill="#2A5391" d="M164.06,46.94l0.12-0.94c-0.3,0.36-0.66,0.64-1.1,0.83c-0.43,0.2-0.88,0.29-1.35,0.29
				c-0.39,0-0.75-0.08-1.08-0.22c-0.33-0.15-0.61-0.37-0.82-0.65s-0.35-0.63-0.41-1.05c-0.05-0.42-0.01-0.87,0.12-1.37l1.35-4.98
				h2.7l-1.17,4.36c-0.14,0.51-0.15,0.9-0.04,1.17c0.11,0.27,0.38,0.41,0.8,0.41c0.42,0,0.75-0.12,0.99-0.37s0.42-0.59,0.54-1.03
				l1.24-4.54h2.7l-2.2,8.1H164.06z"/>
			<path fill="#2A5391" d="M170.66,46.94h-2.7l2.18-8.1h2.4l-0.15,1.11c0.26-0.32,0.59-0.59,0.97-0.8c0.38-0.22,0.77-0.35,1.17-0.41
				c0.4-0.05,0.76-0.06,1.1-0.02l-0.67,2.47h-0.66c-0.71,0-1.27,0.13-1.69,0.4c-0.42,0.27-0.7,0.69-0.86,1.25L170.66,46.94z"/>
			<path fill="#2A5391" d="M179.58,46.94l0.12-0.94c-0.3,0.36-0.66,0.64-1.1,0.83c-0.43,0.2-0.88,0.29-1.35,0.29
				c-0.39,0-0.75-0.08-1.08-0.22c-0.33-0.15-0.61-0.37-0.82-0.65s-0.35-0.63-0.41-1.05c-0.05-0.42-0.01-0.87,0.12-1.37l1.35-4.98
				h2.7l-1.17,4.36c-0.14,0.51-0.15,0.9-0.04,1.17c0.11,0.27,0.38,0.41,0.8,0.41c0.42,0,0.75-0.12,0.99-0.37s0.42-0.59,0.54-1.03
				l1.24-4.54h2.7l-2.2,8.1H179.58z"/>
			<path fill="#2A5391" d="M186.18,46.94h-2.7l2.96-10.95h2.7L186.18,46.94z"/>
			<path fill="#2A5391" d="M192.95,46.94l0.12-0.94c-0.3,0.36-0.66,0.64-1.1,0.83c-0.43,0.2-0.88,0.29-1.35,0.29
				c-0.39,0-0.75-0.08-1.08-0.22c-0.33-0.15-0.61-0.37-0.82-0.65s-0.35-0.63-0.41-1.05c-0.05-0.42-0.01-0.87,0.12-1.37l1.35-4.98
				h2.7l-1.17,4.36c-0.14,0.51-0.15,0.9-0.04,1.17c0.11,0.27,0.38,0.41,0.8,0.41c0.42,0,0.75-0.12,0.99-0.37s0.42-0.59,0.54-1.03
				l1.24-4.54h2.7l-2.2,8.1H192.95z"/>
		</g>
	</g>
</g>
</svg>
